<svg xmlns="http://www.w3.org/2000/svg" xmlns:xlink="http://www.w3.org/1999/xlink" width="21" height="22" viewBox="0 0 21 22">
  <defs>
    <clipPath id="clip-path">
      <rect id="Rectangle_60" data-name="Rectangle 60" width="21" height="22" transform="translate(0.452 -0.077)" fill="#fff" stroke="#707070" stroke-width="1"/>
    </clipPath>
  </defs>
  <g id="Mask_Group_26" data-name="Mask Group 26" transform="translate(-0.452 0.077)" clip-path="url(#clip-path)">
    <g id="logo-javascript" transform="translate(-0.55)">
      <path id="Path_96" data-name="Path 96" d="M0,0H22.565V21.539H0Z" fill="#f0db4f"/>
      <path id="Path_97" data-name="Path 97" d="M38.442,47.459c-.165-.983-.837-1.808-2.825-2.578-.691-.3-1.461-.52-1.69-1.02a1.064,1.064,0,0,1-.041-.631,1.1,1.1,0,0,1,1.429-.586,1.547,1.547,0,0,1,.918.813c.974-.6.972-.6,1.652-1.011a4.042,4.042,0,0,0-.545-.7,3.265,3.265,0,0,0-2.66-.921l-.665.082a3.047,3.047,0,0,0-1.6.9,2.737,2.737,0,0,0,.536,4.015c1.281.917,3.162,1.126,3.4,1.984.234,1.05-.809,1.39-1.845,1.269a2.408,2.408,0,0,1-1.647-1.2c-.845.467-.845.467-1.714.944a3.655,3.655,0,0,0,.768,1c1.634,1.583,5.725,1.5,6.459-.891A2.83,2.83,0,0,0,38.442,47.459Zm-8.451-6.5H27.881c0,1.74-.009,3.468-.009,5.209a8.14,8.14,0,0,1-.129,2.434c-.309.612-1.109.536-1.474.418a1.769,1.769,0,0,1-.779-.772,1.032,1.032,0,0,0-.12-.184q-.859.5-1.716,1a3.289,3.289,0,0,0,1.244,1.36,4.27,4.27,0,0,0,3.016.354,2.648,2.648,0,0,0,1.7-1.274,5.984,5.984,0,0,0,.373-3C30,44.656,29.991,42.809,29.991,40.956Z" transform="translate(-17.724 -31.057)" fill="#323330"/>
    </g>
  </g>
</svg>
