<svg xmlns="http://www.w3.org/2000/svg" xmlns:xlink="http://www.w3.org/1999/xlink" width="38" height="38" viewBox="0 0 38 38">
  <defs>
    <clipPath id="clip-path">
      <rect id="Rectangle_41" data-name="Rectangle 41" width="38" height="38" transform="translate(0 0.035)" fill="#fff" stroke="#707070" stroke-width="1"/>
    </clipPath>
  </defs>
  <g id="Mask_Group_9" data-name="Mask Group 9" transform="translate(0 -0.035)" clip-path="url(#clip-path)">
    <g id="adobe-photoshop-2" transform="translate(0 0.251)">
      <path id="Path_47" data-name="Path 47" d="M6.772,0h24.7A6.766,6.766,0,0,1,38.24,6.772V30.512a6.766,6.766,0,0,1-6.772,6.772H6.772A6.766,6.766,0,0,1,0,30.512V6.772A6.766,6.766,0,0,1,6.772,0Z" fill="#001e36"/>
      <g id="Group_17" data-name="Group 17" transform="translate(8.604 9.48)">
        <path id="Path_48" data-name="Path 48" d="M20.25,38.979v-16.4c0-.112.048-.175.159-.175.271,0,.526,0,.892-.016.382-.016.781-.016,1.211-.032s.892-.016,1.386-.032.972-.016,1.45-.016a9.369,9.369,0,0,1,3.282.494,5.69,5.69,0,0,1,2.135,1.307,5.073,5.073,0,0,1,1.163,1.816A6.1,6.1,0,0,1,32.3,28a5.7,5.7,0,0,1-.956,3.394,5.459,5.459,0,0,1-2.565,1.944,10.326,10.326,0,0,1-3.585.542c-.382,0-.637,0-.8-.016s-.382-.016-.685-.016v5.115a.2.2,0,0,1-.175.223H20.441C20.314,39.186,20.25,39.122,20.25,38.979Zm3.473-13.5v5.354c.223.016.43.032.621.032h.844a5.952,5.952,0,0,0,1.832-.287,2.74,2.74,0,0,0,1.307-.844,2.462,2.462,0,0,0,.494-1.641,2.622,2.622,0,0,0-.366-1.418,2.311,2.311,0,0,0-1.115-.908,4.675,4.675,0,0,0-1.88-.319c-.414,0-.781,0-1.083.016a3.648,3.648,0,0,0-.653.016Zm18.514,4.382a5.64,5.64,0,0,0-1.53-.542,8.4,8.4,0,0,0-1.785-.207,3.208,3.208,0,0,0-.956.112.818.818,0,0,0-.494.319.844.844,0,0,0-.127.43.709.709,0,0,0,.159.414,1.8,1.8,0,0,0,.542.43c.366.191.749.366,1.131.526a11.54,11.54,0,0,1,2.454,1.163,3.707,3.707,0,0,1,1.259,1.322,3.44,3.44,0,0,1,.366,1.641,3.707,3.707,0,0,1-.621,2.119,3.993,3.993,0,0,1-1.785,1.418,7.3,7.3,0,0,1-2.884.51,10.976,10.976,0,0,1-2.167-.207,6.427,6.427,0,0,1-1.625-.51A.313.313,0,0,1,34,38.5V35.728a.173.173,0,0,1,.064-.143.121.121,0,0,1,.143.016,6.821,6.821,0,0,0,1.976.781,7.418,7.418,0,0,0,1.88.239,3.041,3.041,0,0,0,1.322-.223.74.74,0,0,0,.43-.669.844.844,0,0,0-.382-.637,6.757,6.757,0,0,0-1.561-.749,9.748,9.748,0,0,1-2.263-1.147A4.126,4.126,0,0,1,34.4,31.841a3.419,3.419,0,0,1-.366-1.625,3.747,3.747,0,0,1,.542-1.928,3.928,3.928,0,0,1,1.673-1.466,6.179,6.179,0,0,1,2.82-.558,13.736,13.736,0,0,1,1.976.143,5.606,5.606,0,0,1,1.37.366.28.28,0,0,1,.159.143.8.8,0,0,1,.032.191v2.6a.2.2,0,0,1-.08.159.425.425,0,0,1-.287,0Z" transform="translate(-20.25 -22.313)" fill="#31a8ff"/>
      </g>
    </g>
  </g>
</svg>
