<svg xmlns="http://www.w3.org/2000/svg" xmlns:xlink="http://www.w3.org/1999/xlink" width="22" height="22" viewBox="0 0 22 22">
  <defs>
    <clipPath id="clip-path">
      <rect id="Rectangle_70" data-name="Rectangle 70" width="22" height="22" transform="translate(-0.359 -0.077)" fill="#fff" stroke="#707070" stroke-width="1"/>
    </clipPath>
  </defs>
  <g id="Mask_Group_32" data-name="Mask Group 32" transform="translate(0.359 0.077)" clip-path="url(#clip-path)">
    <g id="react-2" transform="translate(-0.138 1.202)">
      <path id="Path_108" data-name="Path 108" d="M54.2,24.095c0-1.456-1.823-2.835-4.617-3.69.645-2.848.358-5.114-.9-5.84a1.964,1.964,0,0,0-1-.251v1a1.037,1.037,0,0,1,.511.116c.609.349.873,1.679.667,3.39-.049.421-.13.864-.228,1.317a21.7,21.7,0,0,0-2.844-.488,21.847,21.847,0,0,0-1.863-2.239c1.46-1.357,2.83-2.1,3.762-2.1v-1c-1.232,0-2.844.878-4.474,2.4-1.63-1.514-3.242-2.383-4.474-2.383v1c.927,0,2.3.739,3.762,2.087a21.153,21.153,0,0,0-1.85,2.235,20.913,20.913,0,0,0-2.848.493c-.1-.448-.179-.882-.233-1.3-.21-1.711.049-3.041.654-3.395a1,1,0,0,1,.515-.116v-1a2,2,0,0,0-1.012.251c-1.258.726-1.541,2.987-.891,5.827-2.786.86-4.6,2.235-4.6,3.686s1.823,2.835,4.617,3.69c-.645,2.848-.358,5.114.9,5.84a1.969,1.969,0,0,0,1.008.251c1.232,0,2.844-.878,4.474-2.4,1.63,1.514,3.242,2.383,4.474,2.383a2,2,0,0,0,1.012-.251c1.258-.726,1.541-2.987.891-5.827,2.777-.855,4.59-2.235,4.59-3.686Zm-5.831-2.987c-.166.578-.372,1.173-.6,1.769-.184-.358-.376-.717-.587-1.075s-.425-.708-.645-1.048C47.172,20.848,47.786,20.964,48.372,21.107Zm-2.051,4.77c-.349.6-.708,1.178-1.079,1.711-.667.058-1.344.09-2.024.09s-1.353-.031-2.015-.085q-.558-.8-1.084-1.7-.511-.88-.932-1.782c.278-.6.591-1.2.927-1.787.349-.6.708-1.178,1.079-1.711.667-.058,1.344-.09,2.024-.09s1.353.031,2.015.085q.558.8,1.084,1.7.511.88.932,1.782C46.966,24.69,46.657,25.29,46.321,25.877Zm1.447-.582c.242.6.448,1.2.618,1.782-.587.143-1.2.264-1.845.358.219-.345.439-.7.645-1.061s.4-.721.582-1.079Zm-4.541,4.779a18.464,18.464,0,0,1-1.245-1.433c.4.018.815.031,1.232.031s.837-.009,1.245-.031A17.48,17.48,0,0,1,43.227,30.073Zm-3.332-2.638c-.636-.094-1.25-.21-1.836-.354.166-.578.372-1.173.6-1.769.184.358.376.717.587,1.075S39.675,27.1,39.895,27.435Zm3.31-9.32a18.465,18.465,0,0,1,1.245,1.433c-.4-.018-.815-.031-1.232-.031s-.837.009-1.245.031A17.48,17.48,0,0,1,43.2,18.116ZM39.89,20.754c-.219.345-.439.7-.645,1.061s-.4.717-.582,1.075c-.242-.6-.448-1.2-.618-1.782C38.632,20.969,39.25,20.848,39.89,20.754Zm-4.053,5.607c-1.585-.676-2.611-1.563-2.611-2.266s1.026-1.594,2.611-2.266c.385-.166.806-.313,1.241-.452A21.51,21.51,0,0,0,38.085,24.1a21.206,21.206,0,0,0-.994,2.714c-.443-.139-.864-.291-1.254-.457Zm2.409,6.4c-.609-.349-.873-1.679-.667-3.39.049-.421.13-.864.228-1.317a21.7,21.7,0,0,0,2.844.488,21.846,21.846,0,0,0,1.863,2.239c-1.46,1.357-2.83,2.1-3.762,2.1A1.069,1.069,0,0,1,38.247,32.76ZM48.87,29.348c.21,1.711-.049,3.041-.654,3.395a1,1,0,0,1-.515.116c-.927,0-2.3-.739-3.762-2.087a21.152,21.152,0,0,0,1.85-2.235,20.913,20.913,0,0,0,2.848-.493A12.537,12.537,0,0,1,48.87,29.348Zm1.724-2.987c-.385.166-.806.313-1.241.452a21.508,21.508,0,0,0-1.008-2.727,21.207,21.207,0,0,0,.994-2.714c.443.139.864.291,1.258.457,1.585.676,2.611,1.563,2.611,2.266S52.179,25.689,50.594,26.361Z" transform="translate(-32.232 -14.309)" fill="#61dafb"/>
      <circle id="Ellipse_8" data-name="Ellipse 8" cx="2.047" cy="2.047" r="2.047" transform="translate(8.935 7.739)" fill="#61dafb"/>
    </g>
  </g>
</svg>
