<svg xmlns="http://www.w3.org/2000/svg" xmlns:xlink="http://www.w3.org/1999/xlink" width="381.562" height="324.635" viewBox="0 0 381.562 324.635">
  <defs>
    <pattern id="pattern" preserveAspectRatio="none" width="100%" height="100%" viewBox="0 0 2709 2500">
      <image width="2709" height="2500" xlink:href="../../../../../../Library/Messages/Attachments/fe/14/624C95E6-845B-40B9-BF4F-7290EB55E76E/Subiect.png"/>
    </pattern>
  </defs>
  <g id="Group_55" data-name="Group 55" transform="translate(-753.146 -475.365)">
    <path id="Subtraction_1" data-name="Subtraction 1" d="M-1071.058,1901.013v-1.666h-285.8a191.913,191.913,0,0,1-19.751-27.013,190.534,190.534,0,0,1-14.83-30.321,189.929,189.929,0,0,1-9.325-33.045,192.461,192.461,0,0,1-3.238-35.187,192.189,192.189,0,0,1,3.876-38.449,189.822,189.822,0,0,1,11.117-35.812,190.8,190.8,0,0,1,17.59-32.407,192.165,192.165,0,0,1,23.3-28.235,192.139,192.139,0,0,1,28.235-23.3,190.8,190.8,0,0,1,32.407-17.59,189.836,189.836,0,0,1,35.812-11.117,192.193,192.193,0,0,1,38.449-3.876,192.189,192.189,0,0,1,38.449,3.876,189.828,189.828,0,0,1,35.811,11.117,190.809,190.809,0,0,1,32.407,17.59,192.153,192.153,0,0,1,28.235,23.3,192.162,192.162,0,0,1,23.3,28.235,190.8,190.8,0,0,1,17.59,32.407,189.84,189.84,0,0,1,11.117,35.812,192.2,192.2,0,0,1,3.876,38.449,192.394,192.394,0,0,1-3.345,35.755,189.92,189.92,0,0,1-9.628,33.533,190.594,190.594,0,0,1-15.3,30.7,192.011,192.011,0,0,1-20.349,27.245Z" transform="translate(2157.146 -1107.635)" fill="#f56457"/>
    <rect id="Subiect" width="308" height="283" transform="translate(783 517)" fill="url(#pattern)"/>
  </g>
</svg>
